<svg width="248" height="189" viewBox="0 0 248 189" fill="none" xmlns="http://www.w3.org/2000/svg">
<path d="M25.4251 23.5821C27.4741 22.5833 29.5122 23.0095 30.8909 23.5303C32.2477 24.0429 33.4769 24.8419 34.2376 25.3369C34.2521 25.3464 34.2663 25.356 34.2805 25.3653C36.6634 26.9157 38.339 29.1131 39.6253 30.9776C43.0937 36.0051 46.1273 41.3575 49.0735 46.5557C49.2091 46.7949 49.3455 47.0339 49.4807 47.2725C51.696 45.6104 54.5988 43.8426 57.4797 42.9082C59.558 42.2342 62.1349 41.8269 64.5188 42.7803C67.143 43.8299 68.7246 46.1774 69.3372 49.2637C70.4456 54.8492 68.2143 59.4191 65.0061 62.7881C61.8627 66.089 57.6306 68.434 54.0139 69.9326C55.0171 75.5523 56.3912 80.9787 57.8176 86.6172C58.2288 88.2425 58.6444 89.8855 59.0569 91.5557C62.5756 105.803 65.6714 120.135 68.6995 134.442C69.0451 136.076 68.001 137.681 66.3674 138.026C64.7338 138.372 63.1293 137.328 62.7835 135.694C59.757 121.394 56.6785 107.148 53.1858 93.0059C52.792 91.4115 52.3892 89.8183 51.9856 88.2237C50.3514 81.7671 48.7079 75.2772 47.6419 68.4981C47.3825 66.8485 48.5099 65.3004 50.1594 65.041C50.3439 65.0121 50.5271 65.0005 50.7073 65.0049C50.98 64.7323 51.3103 64.5082 51.6887 64.3516C54.8978 63.0231 58.2864 61.0763 60.6272 58.6182C62.9069 56.2242 64.0245 53.5609 63.4055 50.4414C63.0707 48.7543 62.4857 48.4794 62.2737 48.3946C61.8214 48.2137 60.8923 48.1597 59.346 48.6612C56.2947 49.6508 52.811 52.1597 51.1077 53.7793C50.6215 54.2415 50.0217 54.5073 49.4036 54.585C48.0833 54.9904 46.6128 54.4478 45.8967 53.1992C45.175 51.9407 44.4632 50.6866 43.7561 49.4395C40.8194 44.2598 37.9495 39.1971 34.6477 34.4112C33.4427 32.6646 32.3205 31.3041 30.9827 30.4336C30.1533 29.894 29.4309 29.4422 28.7542 29.1866C28.3113 29.0193 28.1099 29.0207 28.054 29.0274C27.2994 29.4089 26.5173 30.5565 26.1067 33.0948C25.7277 35.4381 25.8157 38.0289 25.8831 40.0098L25.887 40.1289C25.9131 40.9005 25.6446 41.612 25.1868 42.1621C24.5589 43.4614 23.0709 44.161 21.636 43.751C18.8032 42.9415 16.5184 42.5088 14.4143 42.6367C12.4014 42.7593 10.387 43.4069 8.13502 45.0742C6.24493 46.4737 5.76725 48.2793 6.17897 50.4239C6.62418 52.7426 8.13128 55.2533 9.99733 57.0782C11.1909 58.2456 11.2124 60.1597 10.0452 61.3535C8.87766 62.5474 6.96269 62.5689 5.76881 61.4014C3.23465 58.9231 0.9687 55.3567 0.240491 51.5645C-0.521042 47.5982 0.427309 43.2576 4.53639 40.2149C7.67968 37.8876 10.8057 36.7979 14.0462 36.6006C15.9818 36.4828 17.8926 36.6892 19.7786 37.0655C19.7865 35.5352 19.8658 33.8055 20.137 32.1289C20.6069 29.2241 21.822 25.3385 25.4251 23.5821ZM212.021 1.25882C213.262 0.463893 215.168 -0.375069 217.379 0.177766C221.268 1.15015 223.261 4.70068 224.323 7.44534C224.935 9.02954 225.37 10.7056 225.695 12.2012C227.462 11.4425 229.288 10.8452 231.206 10.5596C234.417 10.0816 237.701 10.5 241.258 12.126C245.908 14.2519 247.736 18.3017 247.812 22.3399C247.885 26.2008 246.406 30.1591 244.44 33.1084C243.513 34.4978 241.636 34.8735 240.246 33.9473C238.857 33.021 238.482 31.1433 239.408 29.7539C240.856 27.5824 241.81 24.8146 241.766 22.4541C241.725 20.2707 240.883 18.6029 238.744 17.625C236.196 16.4601 234.092 16.2442 232.097 16.541C230.012 16.8515 227.866 17.7475 225.262 19.126C223.943 19.824 222.343 19.4482 221.459 18.3076C220.897 17.8643 220.488 17.2233 220.354 16.4629L220.332 16.3457C219.988 14.3937 219.538 11.8402 218.682 9.62601C217.755 7.22825 216.752 6.26804 215.935 6.05081C215.879 6.05583 215.681 6.09616 215.282 6.35159C214.674 6.7418 214.06 7.33271 213.361 8.03226C212.232 9.16089 211.416 10.7244 210.599 12.6826C208.36 18.0486 206.6 23.5959 204.799 29.2715C204.366 30.638 203.929 32.0119 203.484 33.3926C203.041 34.7634 201.713 35.5984 200.336 35.4737C199.716 35.5249 199.075 35.39 198.505 35.0391C196.503 33.8072 192.576 32.0738 189.386 31.7373C187.77 31.5669 186.872 31.8125 186.467 32.083C186.277 32.2099 185.761 32.5994 185.782 34.3194C185.823 37.4994 187.468 39.874 190.194 41.7442C192.993 43.6644 196.712 44.8667 200.126 45.502C200.529 45.5769 200.897 45.7295 201.22 45.9395C201.396 45.8976 201.578 45.8702 201.765 45.8604C203.432 45.7727 204.856 47.0533 204.944 48.7207C205.304 55.5738 205.041 62.2638 204.779 68.919C204.714 70.5626 204.649 72.2044 204.594 73.8457C204.105 88.4043 204.043 102.98 204.043 117.597C204.043 119.266 202.689 120.62 201.02 120.62C199.35 120.62 197.997 119.266 197.996 117.597C197.996 102.972 198.058 88.3099 198.551 73.6426C198.609 71.9232 198.675 70.2299 198.74 68.5547C198.969 62.7431 199.187 57.1499 199.005 51.4444C195.157 50.7269 190.531 49.3087 186.773 46.7305C182.937 44.0988 179.808 40.0901 179.736 34.3965C179.696 31.25 180.758 28.625 183.108 27.0547C185.243 25.6286 187.848 25.4945 190.021 25.7237C193.032 26.0413 196.237 27.1697 198.748 28.3369C198.831 28.0752 198.916 27.8133 198.999 27.5508C200.805 21.8554 202.666 15.9912 205.018 10.3545C205.89 8.26419 207.074 5.76707 209.084 3.75687C209.096 3.74481 209.109 3.73211 209.121 3.71976C209.763 3.07788 210.8 2.04113 212.021 1.25882Z" fill="#18654E"/>
<path d="M65.5484 134.249C65.5484 157.508 85.8684 173.978 106.559 180.507C127.016 186.962 147.658 187.154 166.832 176.502C180.576 168.866 193.245 154.962 197.762 139.703C202.499 123.701 198.312 106.245 187.613 93.653C174.519 78.2427 156.288 72.7636 136.384 73.493C100.179 74.8199 66.0684 99.167 63.063 136.735" stroke="#18654E" stroke-width="6.04713" stroke-linecap="round"/>
<path d="M126.126 159.854C134.698 161.871 145.607 163.043 151.643 155.498" stroke="#18654E" stroke-width="6.04713" stroke-linecap="round"/>
<path d="M99.3458 126.944C101.158 131.148 102.002 132.183 106.491 133.365C109.823 134.241 113.243 133.693 116.485 132.64C122.97 130.532 126.375 126.675 126.375 119.954" stroke="#18654E" stroke-width="6.04713" stroke-linecap="round"/>
<path d="M146.88 117.623C149.231 122.187 152.798 126.478 158.297 126.478C164.287 126.478 167.107 120.962 167.851 115.759" stroke="#18654E" stroke-width="6.04713" stroke-linecap="round"/>
</svg>
