<svg width="143" height="197" viewBox="0 0 143 197" fill="none" xmlns="http://www.w3.org/2000/svg">
<path d="M50.014 159.919C52.0078 159.083 53.9721 158.872 55.8362 159.284C57.6727 159.689 59.1844 160.646 60.3938 161.777C62.7387 163.969 64.2705 167.115 65.2552 169.577C65.859 171.086 65.1251 172.8 63.6155 173.404C62.1058 174.008 60.3922 173.273 59.7884 171.763C58.8774 169.486 57.7336 167.351 56.3724 166.079C55.7289 165.477 55.1293 165.157 54.5667 165.033C54.0315 164.915 53.3072 164.924 52.2933 165.349C50.1068 166.267 48.8148 167.437 48.0481 168.748C47.2661 170.084 46.8637 171.853 46.972 174.235C47.0456 175.859 45.7885 177.235 44.1643 177.309C42.5402 177.383 41.1639 176.126 41.0901 174.501C40.9468 171.346 41.4515 168.363 42.9661 165.774C44.4962 163.159 46.8907 161.23 50.014 159.919ZM24.9612 135.436C26.4925 134.889 28.177 135.687 28.7239 137.218C29.604 139.682 30.1823 142.159 30.6722 144.541C30.8436 145.374 31.0016 146.18 31.1565 146.97C31.4573 148.506 31.7473 149.985 32.1048 151.504C32.4772 153.087 31.4952 154.673 29.9124 155.045C28.3298 155.417 26.7447 154.436 26.3724 152.853C25.9906 151.231 25.663 149.558 25.3489 147.957C25.1992 147.193 25.0523 146.445 24.9046 145.727C24.4324 143.432 23.9198 141.273 23.179 139.199C22.6321 137.667 23.43 135.983 24.9612 135.436ZM60.0901 124.277C61.6567 123.842 63.2799 124.759 63.7151 126.326L67.8235 141.119C68.2587 142.685 67.3414 144.308 65.7747 144.744C64.2083 145.178 62.586 144.261 62.1507 142.695L58.0413 127.902C57.6062 126.335 58.5235 124.712 60.0901 124.277ZM55.1614 94.6997C55.5892 93.131 57.208 92.2065 58.7766 92.6343C60.3452 93.0621 61.2697 94.68 60.8421 96.2485C59.4581 101.323 58.1888 106.434 56.9095 111.582C56.8474 111.831 56.785 112.081 56.7229 112.331C55.3833 117.72 54.028 123.147 52.5296 128.542C52.4523 128.82 52.3511 129.236 52.2268 129.748C51.8283 131.389 51.1899 134.017 50.3255 136.255C49.7442 137.76 48.9568 139.399 47.8597 140.697C46.7424 142.018 45.0256 143.286 42.6975 143.206C37.9267 143.041 33.99 139.571 31.2112 136.306C28.3107 132.899 26.0073 128.915 24.6097 126.396C21.308 120.445 19.5419 113.499 17.9876 107.383C17.91 107.078 17.8338 106.775 17.7571 106.474C17.3555 104.899 18.3067 103.296 19.8821 102.894C21.4577 102.492 23.0606 103.444 23.4622 105.02C23.5179 105.238 23.5736 105.457 23.6292 105.675C25.2395 112 26.8378 118.274 29.7591 123.54C31.1299 126.01 33.1978 129.557 35.6946 132.49C38.3081 135.56 40.791 137.241 42.888 137.32C42.8935 137.317 42.9015 137.314 42.9114 137.308C42.9802 137.271 43.1379 137.162 43.3636 136.895C43.8399 136.332 44.344 135.399 44.8323 134.134C45.5427 132.295 46.004 130.395 46.3938 128.79C46.5558 128.122 46.7056 127.506 46.8557 126.965C48.3297 121.659 49.6678 116.305 51.0091 110.91C51.0727 110.654 51.1358 110.397 51.1995 110.141C52.4747 105.01 53.7594 99.8403 55.1614 94.6997Z" fill="#C53339"/>
<path fill-rule="evenodd" clip-rule="evenodd" d="M53.2125 73.5049C32.6801 76.904 13.8428 87.9924 5.28705 109.017C-1.783 126.391 -2.10266 145.515 6.40033 162.536C14.3313 178.411 29.5247 188.42 45.6276 193.387C75.3603 202.558 110.036 193.34 128.358 166.682C129.279 165.342 128.939 163.509 127.599 162.588C126.259 161.667 124.426 162.007 123.505 163.347C106.844 187.589 74.9934 196.283 47.3631 187.76C32.2814 183.108 18.6699 173.92 11.6678 159.904C4.02399 144.604 4.21753 127.267 10.741 111.237C18.3192 92.6141 35.0564 82.479 54.1742 79.314C73.3429 76.1407 94.5065 80.0743 110.112 89.2106C126.008 98.5162 134.125 114.599 136.476 133.034C137.408 140.345 137.484 147.361 135.545 154.157C133.011 163.038 128.957 168.553 122.105 174.843C120.907 175.942 120.827 177.805 121.927 179.003C123.026 180.201 124.888 180.28 126.086 179.181C133.512 172.365 138.3 165.961 141.207 155.773C143.454 147.901 143.299 139.993 142.317 132.289C139.808 112.614 130.997 94.614 113.087 84.1291C96.2564 74.2757 73.6941 70.1141 53.2125 73.5049Z" fill="#C53339"/>
<path d="M99.3092 58.2032C100.343 56.9482 102.199 56.7688 103.454 57.8026L105.075 59.1377C106.33 60.1715 106.509 62.0276 105.476 63.2826C104.442 64.5375 102.587 64.7171 101.332 63.6836L99.7102 62.3472C98.4552 61.3135 98.2755 59.4582 99.3092 58.2032ZM104.168 8.20816C109.981 8.47309 116.527 10.4123 121.407 14.0887C122.48 14.8969 124.365 16.4733 125.768 18.3352C126.466 19.2613 127.178 20.4325 127.516 21.7536C127.875 23.1522 127.827 24.8265 126.804 26.3681C125.802 27.8786 124.373 28.9495 122.967 29.7436C121.552 30.5427 119.975 31.1629 118.492 31.6842C117.74 31.9485 116.815 32.2517 115.95 32.535C115.297 32.749 114.677 32.9516 114.195 33.1175C112.851 33.5794 111.803 33.9964 111.043 34.4296C109.827 35.122 109.288 35.7595 109.034 36.2296C108.788 36.6838 108.681 37.2182 108.751 37.9529C108.909 39.619 109.842 41.5373 111.095 44.1129C111.133 44.1904 111.171 44.2685 111.209 44.3472C111.92 45.8093 111.311 47.5711 109.849 48.2823C108.387 48.9933 106.625 48.3844 105.914 46.9221C105.823 46.7354 105.728 46.5433 105.631 46.3457C104.552 44.1442 103.153 41.2932 102.889 38.5102C102.733 36.8704 102.943 35.1167 103.853 33.4308C104.756 31.761 106.212 30.4052 108.129 29.3135C109.396 28.592 110.883 28.0291 112.282 27.5484C113.031 27.2908 113.669 27.0841 114.29 26.8822C115.012 26.6475 115.711 26.4201 116.539 26.1291C117.916 25.6451 119.109 25.1599 120.072 24.6161C120.96 24.1147 121.503 23.6451 121.816 23.2287C121.814 23.2243 121.814 23.2197 121.812 23.2149C121.745 22.9511 121.53 22.4962 121.064 21.8775C120.139 20.6499 118.749 19.4587 117.864 18.7921C114.106 15.9613 108.767 14.3121 103.9 14.0903C102.276 14.0163 101.02 12.6401 101.093 11.016C101.167 9.39172 102.544 8.13422 104.168 8.20816Z" fill="#C53339"/>
<path d="M77.4974 48.0917C78.444 46.3608 80.2297 45.8551 81.4856 46.9617L82.6324 47.9725C83.8884 49.0793 84.1394 51.3797 83.1928 53.1109C82.2462 54.8419 80.4604 55.3485 79.2044 54.2418L78.0578 53.23C76.8018 52.1233 76.5508 49.8228 77.4974 48.0917ZM87.0693 0.546875C88.6353 0.579047 89.7871 2.27062 89.6415 4.32503C89.0805 12.2448 87.3178 19.7416 85.6299 26.9211C85.2596 28.4965 84.893 30.057 84.5433 31.603C84.0892 33.6098 82.5001 34.8799 80.9944 34.4399C79.4889 33.9997 78.6361 32.0162 79.09 30.0094C79.4787 28.2911 79.8723 26.6156 80.2581 24.9701C81.9305 17.8364 83.4705 11.2658 83.9705 4.20868C84.116 2.1543 85.5034 0.514789 87.0693 0.546875Z" fill="#C53339"/>
</svg>
